<svg height="512" viewBox="0 0 64 64" width="512" xmlns="http://www.w3.org/2000/svg"><g id="protect-safe-coronavirus-covid19-protection"><circle cx="32" cy="32" fill="#ffcd00" r="25"/><path d="m43.242 34.03a1 1 0 1 0 -.484 1.94l6.712 1.678.393-1.963z" fill="#ab2300"/><path d="m14 38a1 1 0 0 1 -.273-1.961l7-2a1 1 0 1 1 .548 1.922l-7 2a.962.962 0 0 1 -.275.039z" fill="#ab2300"/><path d="m24 25a1 1 0 0 1 -.707-.293l-5-5a1 1 0 0 1 1.414-1.414l5 5a1 1 0 0 1 -.707 1.707z" fill="#ab2300"/><path d="m43 30a1 1 0 0 1 -.273-1.961l7-2a1 1 0 1 1 .548 1.922l-7 2a.962.962 0 0 1 -.275.039z" fill="#ab2300"/><path d="m35.677 14.169-1.647 6.588a1 1 0 0 0 .728 1.213.968.968 0 0 0 .242.03 1 1 0 0 0 .969-.757l1.647-6.589z" fill="#ab2300"/><path d="m35.97 42.757a1 1 0 0 0 -1.94.486l1.621 6.482 1.978-.33z" fill="#ab2300"/><path d="m29.97 43.243a1 1 0 0 0 -1.94-.486l-1.443 5.772 1.9.634z" fill="#ab2300"/><circle cx="32" cy="32" fill="#ff5023" r="12"/><path d="m32 20a11.968 11.968 0 0 0 -1.5.1 11.989 11.989 0 0 1 0 23.792 12 12 0 1 0 1.5-23.892z" fill="#df461f"/><path d="m27.4 24.858a1 1 0 0 0 -1.366-.365l-1.224.707a1 1 0 1 0 1 1.732l1.224-.708a1 1 0 0 0 .366-1.366z" fill="#cd2a00"/><path d="m28.206 27.842a1 1 0 0 0 -1.225.707l-.258.966a1 1 0 0 0 .707 1.225 1.013 1.013 0 0 0 .259.034 1 1 0 0 0 .965-.741l.259-.966a1 1 0 0 0 -.707-1.225z" fill="#ff7956"/><path d="m37.5 34.777.966.259a.974.974 0 0 0 .26.035 1 1 0 0 0 .257-1.967l-.965-.258a1 1 0 1 0 -.518 1.931z" fill="#ff7956"/><path d="m31 42h1a1 1 0 0 0 0-2h-1a1 1 0 0 0 0 2z" fill="#ff7956"/><path d="m33.293 38.707a1 1 0 0 0 1.414-1.414l-1-1a1 1 0 0 0 -1.414 1.414z" fill="#cd2a00"/><path d="m24 32h-1a1 1 0 0 0 0 2h1a1 1 0 0 0 0-2z" fill="#ff7956"/><path d="m34.707 22.293a1 1 0 0 0 -1.414 0l-1 1a1 1 0 1 0 1.414 1.414l1-1a1 1 0 0 0 0-1.414z" fill="#ff7956"/><path d="m44 45a1 1 0 0 1 -.707-.293l-7.05-7.05a1 1 0 0 1 1.414-1.414l7.05 7.05a1 1 0 0 1 -.707 1.707z" fill="#ff7956"/><path d="m24.273 30.93a1.015 1.015 0 0 1 -.273-.039l-10.272-2.93a1 1 0 1 1 .548-1.922l10.273 2.929a1 1 0 0 1 -.274 1.962z" fill="#ff7956"/><path d="m41 32a1 1 0 0 0 1-1v-1a1 1 0 0 0 -2 0v1a1 1 0 0 0 1 1z" fill="#cd2a00"/><path d="m28.308 14.055-1.923.549 2.836 10.886a1 1 0 1 0 1.935-.5z" fill="#ff7956"/><g fill="#d80027"><path d="m27.859 47.455a2 2 0 1 0 1.414 2.445 2 2 0 0 0 -1.414-2.445z"/><path d="m43.314 46.142a2 2 0 1 0 0-2.828 2 2 0 0 0 0 2.828z"/><path d="m48.869 25.409a2 2 0 1 0 2.45 1.415 2 2 0 0 0 -2.45-1.415z"/><path d="m49.9 34.727a2 2 0 1 0 1.415 2.449 2 2 0 0 0 -1.415-2.449z"/><path d="m36.141 47.455a2 2 0 1 0 2.45 1.414 2 2 0 0 0 -2.45-1.414z"/><path d="m36.141 16.545a2 2 0 1 0 -1.414-2.445 2 2 0 0 0 1.414 2.445z"/><path d="m20.686 20.686a2 2 0 1 0 -2.828 0 2 2 0 0 0 2.828 0z"/><path d="m14.1 34.727a2 2 0 1 0 2.449 1.414 2 2 0 0 0 -2.449-1.414z"/><path d="m29.273 14.1a2 2 0 1 0 -1.414 2.449 2 2 0 0 0 1.414-2.449z"/><path d="m15.131 25.409a2 2 0 1 0 1.414 2.45 2 2 0 0 0 -1.414-2.45z"/><path d="m51.04 10.13a29 29 0 0 0 -40.91 40.91 27 27 0 0 0 2.83 2.83 29 29 0 0 0 40.91-40.91 27 27 0 0 0 -2.83-2.83zm-44.04 21.87a24.991 24.991 0 0 1 41.2-19.03l-9.25 9.25-16.73 16.73-9.25 9.25a24.9 24.9 0 0 1 -5.97-16.2zm25 25a24.9 24.9 0 0 1 -16.2-5.97l9.25-9.25 25.98-25.98a24.991 24.991 0 0 1 -19.03 41.2z"/></g></g></svg>